<?xml version="1.0" standalone="no"?>
 <!DOCTYPE svg PUBLIC "-//W3C//DTD SVG 1.1//EN" 
 "http://www.w3.org/Graphics/SVG/1.1/DTD/svg11.dtd"> 
<svg xmlns="http://www.w3.org/2000/svg" version="1.1" 
    width="29.7002cm" height="21.0007cm" viewBox="0 0 116930 82680 ">
<title>SVG Picture created as Distribution-F.Cu.svg date 2017/10/29 09:50:00 </title>
  <desc>Picture generated by PCBNEW </desc>
<g style="fill:#000000; fill-opacity:1;stroke:#000000; stroke-opacity:1;
stroke-linecap:round; stroke-linejoin:round; "
 transform="translate(0 0) scale(1 1)">
</g>
<g style="fill:#000000; fill-opacity:0.0; 
stroke:#000000; stroke-width:-0.000393701; stroke-opacity:1; 
stroke-linecap:round; stroke-linejoin:round;">
</g>
<g style="fill:#000000; fill-opacity:1.0; 
stroke:#000000; stroke-width:0; stroke-opacity:1; 
stroke-linecap:round; stroke-linejoin:round;">
<circle cx="62654.4" cy="39750" r="196.85" /> 
</g>
<g style="fill:#000000; fill-opacity:1.0; 
stroke:#000000; stroke-width:39.3701; stroke-opacity:1; 
stroke-linecap:round; stroke-linejoin:round;">
</g>
<g style="fill:#000000; fill-opacity:1.0; 
stroke:#000000; stroke-width:0; stroke-opacity:1; 
stroke-linecap:round; stroke-linejoin:round;">
<circle cx="53205.6" cy="39750" r="196.85" /> 
</g>
<g style="fill:#000000; fill-opacity:1.0; 
stroke:#000000; stroke-width:39.3701; stroke-opacity:1; 
stroke-linecap:round; stroke-linejoin:round;">
</g>
<g style="fill:#000000; fill-opacity:1.0; 
stroke:#000000; stroke-width:393.701; stroke-opacity:1; 
stroke-linecap:round; stroke-linejoin:round;">
</g>
<g style="fill:#000000; fill-opacity:0.0; 
stroke:#000000; stroke-width:393.701; stroke-opacity:1; 
stroke-linecap:round; stroke-linejoin:round;">
<path d="M58914 38647
L58914 38883
" />
<path d="M58422 38647
L58422 38883
" />
<path d="M57930 38647
L57930 38883
" />
<path d="M57437 38647
L57437 38883
" />
<path d="M56945 38647
L56945 38883
" />
</g>
<g style="fill:#000000; fill-opacity:0.0; 
stroke:#000000; stroke-width:800; stroke-opacity:1; 
stroke-linecap:round; stroke-linejoin:round;">
<path d="M61430 38600
L61430 38400
" />
<path d="M60430 38600
L60430 38400
" />
<path d="M55430 38600
L55430 38400
" />
<path d="M54430 38600
L54430 38400
" />
</g>
<g style="fill:#000000; fill-opacity:0.0; 
stroke:#000000; stroke-width:0; stroke-opacity:1; 
stroke-linecap:round; stroke-linejoin:round;">
</g>
<g style="fill:#000000; fill-opacity:1.0; 
stroke:#000000; stroke-width:0; stroke-opacity:1; 
stroke-linecap:round; stroke-linejoin:round;">
<polyline style="fill-rule:evenodd;"
points="55830,39600
55030,39600
55030,40400
55830,40400
55830,39600
" /> 
<polyline style="fill-rule:evenodd;"
points="55830,40600
55030,40600
55030,41400
55830,41400
55830,40600
" /> 
<polyline style="fill-rule:evenodd;"
points="56830,39600
56030,39600
56030,40400
56830,40400
56830,39600
" /> 
<polyline style="fill-rule:evenodd;"
points="56830,40600
56030,40600
56030,41400
56830,41400
56830,40600
" /> 
<polyline style="fill-rule:evenodd;"
points="57830,39600
57030,39600
57030,40400
57830,40400
57830,39600
" /> 
<polyline style="fill-rule:evenodd;"
points="57830,40600
57030,40600
57030,41400
57830,41400
57830,40600
" /> 
<polyline style="fill-rule:evenodd;"
points="58830,39600
58030,39600
58030,40400
58830,40400
58830,39600
" /> 
<polyline style="fill-rule:evenodd;"
points="58830,40600
58030,40600
58030,41400
58830,41400
58830,40600
" /> 
<polyline style="fill-rule:evenodd;"
points="59830,39600
59030,39600
59030,40400
59830,40400
59830,39600
" /> 
<polyline style="fill-rule:evenodd;"
points="59830,40600
59030,40600
59030,41400
59830,41400
59830,40600
" /> 
<polyline style="fill-rule:evenodd;"
points="60830,39600
60030,39600
60030,40400
60830,40400
60830,39600
" /> 
<polyline style="fill-rule:evenodd;"
points="60830,40600
60030,40600
60030,41400
60830,41400
60830,40600
" /> 
</g>
<g style="fill:#000000; fill-opacity:1.0; 
stroke:#000000; stroke-width:196.85; stroke-opacity:1; 
stroke-linecap:round; stroke-linejoin:round;">
</g>
<g style="fill:#000000; fill-opacity:0.0; 
stroke:#000000; stroke-width:196.85; stroke-opacity:1; 
stroke-linecap:round; stroke-linejoin:round;">
<path d="M58430 40000
L58430 39600
" />
<path d="M58430 39600
L57930 39100
" />
<path d="M57930 39100
L57930 38765
" />
<path d="M55430 40000
L56430 40000
" />
<path d="M56430 40000
L57430 40000
" />
<path d="M57430 40000
L58430 40000
" />
<path d="M58430 40000
L59430 40000
" />
<path d="M59430 40000
L60430 40000
" />
<path d="M60430 38500
L59680 38500
" />
<path d="M58680 38250
L58422 38507
" />
<path d="M59430 38250
L58680 38250
" />
<path d="M59680 38500
L59430 38250
" />
<path d="M58422 38507
L58422 38765
" />
<path d="M56945 38765
L55695 38765
" />
<path d="M55695 38765
L55430 38500
" />
<path d="M55695 38765
L55430 38500
" />
<path d="M57437 38765
L57437 39192
" />
<path d="M54980 41000
L55430 41000
" />
<path d="M54780 40800
L54980 41000
" />
<path d="M54780 39550
L54780 40800
" />
<path d="M54980 39350
L54780 39550
" />
<path d="M57280 39350
L54980 39350
" />
<path d="M57437 39192
L57280 39350
" />
<path d="M55080 41000
L55430 41000
" />
<path d="M55430 41000
L56430 41000
" />
<path d="M56430 41000
L57430 41000
" />
<path d="M57430 41000
L58430 41000
" />
<path d="M58430 41000
L59430 41000
" />
<path d="M59430 41000
L60430 41000
" />
<path d="M55430 41000
L55180 41000
" />
</g>
<g style="fill:#000000; fill-opacity:1.0; 
stroke:#000000; stroke-width:100; stroke-opacity:1; 
stroke-linecap:round; stroke-linejoin:round;">
<polyline style="fill-rule:evenodd;"
points="52468,42062
63391,42062
63391,39838
63101,39838
63033,40002
62907,40128
62743,40196
62565,40196
62401,40129
62275,40003
62207,39839
62207,39661
62275,39497
62400,39371
62565,39303
62742,39303
62907,39370
63033,39496
63101,39660
63101,39838
63391,39838
63391,38550
62080,38550
62080,38650
62011,38894
61854,39094
61632,39219
61580,39232
61480,39185
61480,38550
62080,38550
63391,38550
63391,38350
62080,38350
62080,38450
61480,38450
61480,37814
61380,37814
61380,38450
61372,38450
61372,38550
61380,38550
61380,39185
61279,39232
61227,39219
61005,39094
60935,39005
60889,39074
60678,39215
60430,39264
60181,39215
59970,39074
59829,38863
59826,38848
59680,38848
59680,38848
59568,38826
59546,38821
59537,38815
59361,38815
59361,38933
59307,39101
59194,39235
59033,39314
58964,39264
58964,38815
59361,38815
59537,38815
59433,38746
59361,38673
59361,38715
58964,38715
58964,38707
58868,38707
58868,38894
58864,38918
58864,39264
58795,39314
58672,39254
58615,39292
58667,39345
58830,39345
58922,39362
58928,39366
58930,39365
59030,39345
59830,39345
59922,39362
59928,39366
59930,39365
60030,39345
60830,39345
60922,39362
61007,39417
61064,39500
61084,39600
61084,40400
61067,40492
61063,40498
61064,40500
61084,40600
61084,41400
61067,41492
61012,41577
60929,41634
60830,41654
60030,41654
59937,41637
59931,41633
59929,41634
59830,41654
59030,41654
58937,41637
58931,41633
58929,41634
58830,41654
58030,41654
57937,41637
57931,41633
57929,41634
57830,41654
57030,41654
56937,41637
56931,41633
56929,41634
56830,41654
56030,41654
55937,41637
55931,41633
55929,41634
55830,41654
55030,41654
54937,41637
54852,41582
54795,41499
54775,41400
54775,41274
54733,41246
54533,41046
54533,41046
54458,40933
54431,40800
54431,39838
53652,39838
53584,40002
53459,40128
53294,40196
53117,40196
52952,40129
52826,40003
52758,39839
52758,39661
52826,39497
52952,39371
53116,39303
53294,39303
53458,39370
53584,39496
53652,39660
53652,39838
54431,39838
54431,39550
54458,39416
54533,39303
54533,39303
54612,39224
54580,39232
54480,39185
54480,38550
54380,38550
54380,39185
54279,39232
54227,39219
54005,39094
53848,38894
53780,38650
53780,38550
54380,38550
54480,38550
54487,38550
54487,38450
54480,38450
54480,37814
54380,37814
54380,38450
53780,38450
53780,38350
53848,38105
54005,37905
54227,37780
54279,37767
54380,37814
54480,37814
54580,37767
54632,37780
54854,37905
54924,37994
54970,37925
55181,37784
55430,37735
55678,37784
55889,37925
56030,38136
56080,38385
56080,38417
56565,38417
56629,38320
56774,38223
56945,38189
57116,38223
57191,38273
57266,38223
57437,38189
57608,38223
57683,38273
57758,38223
57930,38189
58101,38223
58170,38269
58175,38261
58175,38261
58433,38003
58546,37928
58568,37923
58680,37901
58680,37901
59429,37901
59430,37901
59563,37928
59563,37928
59563,37928
59676,38003
59676,38003
59824,38151
59826,38151
59829,38136
59970,37925
60181,37784
60430,37735
60678,37784
60889,37925
60935,37994
61005,37905
61227,37780
61279,37767
61380,37814
61480,37814
61580,37767
61632,37780
61854,37905
62011,38105
62080,38350
63391,38350
63391,37437
52468,37437
52468,42062
" /> 
</g>
<g style="fill:#FFFFFF; fill-opacity:1.0; 
stroke:#FFFFFF; stroke-width:100; stroke-opacity:1; 
stroke-linecap:round; stroke-linejoin:round;">
</g>
<g style="fill:#FFFFFF; fill-opacity:1.0; 
stroke:#FFFFFF; stroke-width:0; stroke-opacity:1; 
stroke-linecap:round; stroke-linejoin:round;">
<circle cx="62654.4" cy="39750" r="68.8976" /> 
</g>
<g style="fill:#FFFFFF; fill-opacity:1.0; 
stroke:#FFFFFF; stroke-width:39.3701; stroke-opacity:1; 
stroke-linecap:round; stroke-linejoin:round;">
</g>
<g style="fill:#FFFFFF; fill-opacity:1.0; 
stroke:#FFFFFF; stroke-width:0; stroke-opacity:1; 
stroke-linecap:round; stroke-linejoin:round;">
<circle cx="53205.6" cy="39750" r="68.8976" /> 
</g>
<g style="fill:#FFFFFF; fill-opacity:1.0; 
stroke:#FFFFFF; stroke-width:39.3701; stroke-opacity:1; 
stroke-linecap:round; stroke-linejoin:round;">
</g>
<g style="fill:#FFFFFF; fill-opacity:1.0; 
stroke:#FFFFFF; stroke-width:0; stroke-opacity:1; 
stroke-linecap:round; stroke-linejoin:round;">
<circle cx="58914.3" cy="38765.7" r="68.8976" /> 
</g>
<g style="fill:#FFFFFF; fill-opacity:1.0; 
stroke:#FFFFFF; stroke-width:39.3701; stroke-opacity:1; 
stroke-linecap:round; stroke-linejoin:round;">
</g>
<g style="fill:#FFFFFF; fill-opacity:1.0; 
stroke:#FFFFFF; stroke-width:0; stroke-opacity:1; 
stroke-linecap:round; stroke-linejoin:round;">
<circle cx="58422.1" cy="38765.7" r="68.8976" /> 
</g>
<g style="fill:#FFFFFF; fill-opacity:1.0; 
stroke:#FFFFFF; stroke-width:39.3701; stroke-opacity:1; 
stroke-linecap:round; stroke-linejoin:round;">
</g>
<g style="fill:#FFFFFF; fill-opacity:1.0; 
stroke:#FFFFFF; stroke-width:0; stroke-opacity:1; 
stroke-linecap:round; stroke-linejoin:round;">
<circle cx="57930" cy="38765.7" r="68.8976" /> 
</g>
<g style="fill:#FFFFFF; fill-opacity:1.0; 
stroke:#FFFFFF; stroke-width:39.3701; stroke-opacity:1; 
stroke-linecap:round; stroke-linejoin:round;">
</g>
<g style="fill:#FFFFFF; fill-opacity:1.0; 
stroke:#FFFFFF; stroke-width:0; stroke-opacity:1; 
stroke-linecap:round; stroke-linejoin:round;">
<circle cx="57437.9" cy="38765.7" r="68.8976" /> 
</g>
<g style="fill:#FFFFFF; fill-opacity:1.0; 
stroke:#FFFFFF; stroke-width:39.3701; stroke-opacity:1; 
stroke-linecap:round; stroke-linejoin:round;">
</g>
<g style="fill:#FFFFFF; fill-opacity:1.0; 
stroke:#FFFFFF; stroke-width:0; stroke-opacity:1; 
stroke-linecap:round; stroke-linejoin:round;">
<circle cx="56945.7" cy="38765.7" r="68.8976" /> 
</g>
<g style="fill:#FFFFFF; fill-opacity:1.0; 
stroke:#FFFFFF; stroke-width:39.3701; stroke-opacity:1; 
stroke-linecap:round; stroke-linejoin:round;">
</g>
<g style="fill:#FFFFFF; fill-opacity:1.0; 
stroke:#FFFFFF; stroke-width:0; stroke-opacity:1; 
stroke-linecap:round; stroke-linejoin:round;">
<circle cx="61430" cy="38500" r="68.8976" /> 
</g>
<g style="fill:#FFFFFF; fill-opacity:1.0; 
stroke:#FFFFFF; stroke-width:39.3701; stroke-opacity:1; 
stroke-linecap:round; stroke-linejoin:round;">
</g>
<g style="fill:#FFFFFF; fill-opacity:1.0; 
stroke:#FFFFFF; stroke-width:0; stroke-opacity:1; 
stroke-linecap:round; stroke-linejoin:round;">
<circle cx="60430" cy="38500" r="68.8976" /> 
</g>
<g style="fill:#FFFFFF; fill-opacity:1.0; 
stroke:#FFFFFF; stroke-width:39.3701; stroke-opacity:1; 
stroke-linecap:round; stroke-linejoin:round;">
</g>
<g style="fill:#FFFFFF; fill-opacity:1.0; 
stroke:#FFFFFF; stroke-width:0; stroke-opacity:1; 
stroke-linecap:round; stroke-linejoin:round;">
<circle cx="55430" cy="38500" r="68.8976" /> 
</g>
<g style="fill:#FFFFFF; fill-opacity:1.0; 
stroke:#FFFFFF; stroke-width:39.3701; stroke-opacity:1; 
stroke-linecap:round; stroke-linejoin:round;">
</g>
<g style="fill:#FFFFFF; fill-opacity:1.0; 
stroke:#FFFFFF; stroke-width:0; stroke-opacity:1; 
stroke-linecap:round; stroke-linejoin:round;">
<circle cx="54430" cy="38500" r="68.8976" /> 
</g>
<g style="fill:#FFFFFF; fill-opacity:1.0; 
stroke:#FFFFFF; stroke-width:39.3701; stroke-opacity:1; 
stroke-linecap:round; stroke-linejoin:round;">
</g>
<g style="fill:#FFFFFF; fill-opacity:1.0; 
stroke:#FFFFFF; stroke-width:0; stroke-opacity:1; 
stroke-linecap:round; stroke-linejoin:round;">
<circle cx="55430" cy="40000" r="68.8976" /> 
</g>
<g style="fill:#FFFFFF; fill-opacity:1.0; 
stroke:#FFFFFF; stroke-width:39.3701; stroke-opacity:1; 
stroke-linecap:round; stroke-linejoin:round;">
</g>
<g style="fill:#FFFFFF; fill-opacity:1.0; 
stroke:#FFFFFF; stroke-width:0; stroke-opacity:1; 
stroke-linecap:round; stroke-linejoin:round;">
<circle cx="55430" cy="41000" r="68.8976" /> 
</g>
<g style="fill:#FFFFFF; fill-opacity:1.0; 
stroke:#FFFFFF; stroke-width:39.3701; stroke-opacity:1; 
stroke-linecap:round; stroke-linejoin:round;">
</g>
<g style="fill:#FFFFFF; fill-opacity:1.0; 
stroke:#FFFFFF; stroke-width:0; stroke-opacity:1; 
stroke-linecap:round; stroke-linejoin:round;">
<circle cx="56430" cy="40000" r="68.8976" /> 
</g>
<g style="fill:#FFFFFF; fill-opacity:1.0; 
stroke:#FFFFFF; stroke-width:39.3701; stroke-opacity:1; 
stroke-linecap:round; stroke-linejoin:round;">
</g>
<g style="fill:#FFFFFF; fill-opacity:1.0; 
stroke:#FFFFFF; stroke-width:0; stroke-opacity:1; 
stroke-linecap:round; stroke-linejoin:round;">
<circle cx="56430" cy="41000" r="68.8976" /> 
</g>
<g style="fill:#FFFFFF; fill-opacity:1.0; 
stroke:#FFFFFF; stroke-width:39.3701; stroke-opacity:1; 
stroke-linecap:round; stroke-linejoin:round;">
</g>
<g style="fill:#FFFFFF; fill-opacity:1.0; 
stroke:#FFFFFF; stroke-width:0; stroke-opacity:1; 
stroke-linecap:round; stroke-linejoin:round;">
<circle cx="57430" cy="40000" r="68.8976" /> 
</g>
<g style="fill:#FFFFFF; fill-opacity:1.0; 
stroke:#FFFFFF; stroke-width:39.3701; stroke-opacity:1; 
stroke-linecap:round; stroke-linejoin:round;">
</g>
<g style="fill:#FFFFFF; fill-opacity:1.0; 
stroke:#FFFFFF; stroke-width:0; stroke-opacity:1; 
stroke-linecap:round; stroke-linejoin:round;">
<circle cx="57430" cy="41000" r="68.8976" /> 
</g>
<g style="fill:#FFFFFF; fill-opacity:1.0; 
stroke:#FFFFFF; stroke-width:39.3701; stroke-opacity:1; 
stroke-linecap:round; stroke-linejoin:round;">
</g>
<g style="fill:#FFFFFF; fill-opacity:1.0; 
stroke:#FFFFFF; stroke-width:0; stroke-opacity:1; 
stroke-linecap:round; stroke-linejoin:round;">
<circle cx="58430" cy="40000" r="68.8976" /> 
</g>
<g style="fill:#FFFFFF; fill-opacity:1.0; 
stroke:#FFFFFF; stroke-width:39.3701; stroke-opacity:1; 
stroke-linecap:round; stroke-linejoin:round;">
</g>
<g style="fill:#FFFFFF; fill-opacity:1.0; 
stroke:#FFFFFF; stroke-width:0; stroke-opacity:1; 
stroke-linecap:round; stroke-linejoin:round;">
<circle cx="58430" cy="41000" r="68.8976" /> 
</g>
<g style="fill:#FFFFFF; fill-opacity:1.0; 
stroke:#FFFFFF; stroke-width:39.3701; stroke-opacity:1; 
stroke-linecap:round; stroke-linejoin:round;">
</g>
<g style="fill:#FFFFFF; fill-opacity:1.0; 
stroke:#FFFFFF; stroke-width:0; stroke-opacity:1; 
stroke-linecap:round; stroke-linejoin:round;">
<circle cx="59430" cy="40000" r="68.8976" /> 
</g>
<g style="fill:#FFFFFF; fill-opacity:1.0; 
stroke:#FFFFFF; stroke-width:39.3701; stroke-opacity:1; 
stroke-linecap:round; stroke-linejoin:round;">
</g>
<g style="fill:#FFFFFF; fill-opacity:1.0; 
stroke:#FFFFFF; stroke-width:0; stroke-opacity:1; 
stroke-linecap:round; stroke-linejoin:round;">
<circle cx="59430" cy="41000" r="68.8976" /> 
</g>
<g style="fill:#FFFFFF; fill-opacity:1.0; 
stroke:#FFFFFF; stroke-width:39.3701; stroke-opacity:1; 
stroke-linecap:round; stroke-linejoin:round;">
</g>
<g style="fill:#FFFFFF; fill-opacity:1.0; 
stroke:#FFFFFF; stroke-width:0; stroke-opacity:1; 
stroke-linecap:round; stroke-linejoin:round;">
<circle cx="60430" cy="40000" r="68.8976" /> 
</g>
<g style="fill:#FFFFFF; fill-opacity:1.0; 
stroke:#FFFFFF; stroke-width:39.3701; stroke-opacity:1; 
stroke-linecap:round; stroke-linejoin:round;">
</g>
<g style="fill:#FFFFFF; fill-opacity:1.0; 
stroke:#FFFFFF; stroke-width:0; stroke-opacity:1; 
stroke-linecap:round; stroke-linejoin:round;">
<circle cx="60430" cy="41000" r="68.8976" /> 
</g>
<g style="fill:#FFFFFF; fill-opacity:1.0; 
stroke:#FFFFFF; stroke-width:39.3701; stroke-opacity:1; 
stroke-linecap:round; stroke-linejoin:round;">
</g>
<g style="fill:#000000; fill-opacity:1.0; 
stroke:#000000; stroke-width:39.3701; stroke-opacity:1; 
stroke-linecap:round; stroke-linejoin:round;">
</g> 
</svg>
