M48
;DRILL file {KiCad 4.0.7-e2-6376~58~ubuntu16.04.1} date Sun Oct 29 10:01:48 2017
;FORMAT={-:-/ absolute / inch / decimal}
FMAT,2
INCH,TZ
T1C0.020
T2C0.040
%
G90
G05
M72
T1
X5.8016Y-3.8766
X5.8508Y-3.8766
X5.9Y-3.8766
X5.9492Y-3.8766
X5.9984Y-3.8766
T2
X5.55Y-3.85
X5.65Y-3.85
X5.65Y-4.
X5.65Y-4.1
X5.75Y-4.
X5.75Y-4.1
X5.85Y-4.
X5.85Y-4.1
X5.95Y-4.
X5.95Y-4.1
X6.05Y-4.
X6.05Y-4.1
X6.15Y-3.85
X6.15Y-4.
X6.15Y-4.1
X6.25Y-3.85
T0
M30
