G04 #@! TF.FileFunction,Legend,Top*
%FSLAX46Y46*%
G04 Gerber Fmt 4.6, Leading zero omitted, Abs format (unit mm)*
G04 Created by KiCad (PCBNEW 4.0.7-e2-6376~58~ubuntu16.04.1) date Sun Oct 29 10:10:01 2017*
%MOMM*%
%LPD*%
G01*
G04 APERTURE LIST*
%ADD10C,0.100000*%
%ADD11C,0.150000*%
G04 APERTURE END LIST*
D10*
D11*
X145860000Y-98345000D02*
X145860000Y-96415000D01*
X145860000Y-96415000D02*
X153860000Y-96415000D01*
X153860000Y-96415000D02*
X153860000Y-99615000D01*
X153860000Y-99615000D02*
X147130000Y-99615000D01*
X147360000Y-100115000D02*
X147860000Y-100615000D01*
X147860000Y-100615000D02*
X146860000Y-100615000D01*
X146860000Y-100615000D02*
X147360000Y-100115000D01*
X142240000Y-96520000D02*
X144780000Y-96520000D01*
X139420000Y-96240000D02*
X140970000Y-96240000D01*
X142240000Y-96520000D02*
X142240000Y-99060000D01*
X140970000Y-99340000D02*
X139420000Y-99340000D01*
X139420000Y-99340000D02*
X139420000Y-96240000D01*
X142240000Y-99060000D02*
X144780000Y-99060000D01*
X144780000Y-99060000D02*
X144780000Y-96520000D01*
X157480000Y-96520000D02*
X160020000Y-96520000D01*
X154660000Y-96240000D02*
X156210000Y-96240000D01*
X157480000Y-96520000D02*
X157480000Y-99060000D01*
X156210000Y-99340000D02*
X154660000Y-99340000D01*
X154660000Y-99340000D02*
X154660000Y-96240000D01*
X157480000Y-99060000D02*
X160020000Y-99060000D01*
X160020000Y-99060000D02*
X160020000Y-96520000D01*
X142240000Y-105410000D02*
X157480000Y-105410000D01*
X154940000Y-100330000D02*
X142240000Y-100330000D01*
X142240000Y-105410000D02*
X142240000Y-100330000D01*
X157480000Y-105410000D02*
X157480000Y-102870000D01*
X157760000Y-101600000D02*
X157760000Y-100050000D01*
X157480000Y-102870000D02*
X154940000Y-102870000D01*
X154940000Y-102870000D02*
X154940000Y-100330000D01*
X157760000Y-100050000D02*
X156210000Y-100050000D01*
M02*
