G04 #@! TF.FileFunction,Copper,L1,Top,Signal*
%FSLAX46Y46*%
G04 Gerber Fmt 4.6, Leading zero omitted, Abs format (unit mm)*
G04 Created by KiCad (PCBNEW 4.0.7-e2-6376~58~ubuntu16.04.1) date Sun Oct 29 10:10:01 2017*
%MOMM*%
%LPD*%
G01*
G04 APERTURE LIST*
%ADD10C,0.100000*%
%ADD11C,3.200000*%
%ADD12O,1.000000X1.600000*%
%ADD13O,2.032000X2.540000*%
%ADD14R,2.032000X2.032000*%
%ADD15C,0.500000*%
%ADD16C,0.254000*%
G04 APERTURE END LIST*
D10*
D11*
X137860000Y-100965000D03*
X161860000Y-100965000D03*
D12*
X147360000Y-98465000D03*
X148610000Y-98465000D03*
X149860000Y-98465000D03*
X151110000Y-98465000D03*
X152360000Y-98465000D03*
D13*
X140970000Y-97790000D03*
X143510000Y-97790000D03*
X156210000Y-97790000D03*
X158750000Y-97790000D03*
D14*
X156210000Y-101600000D03*
X156210000Y-104140000D03*
X153670000Y-101600000D03*
X153670000Y-104140000D03*
X151130000Y-101600000D03*
X151130000Y-104140000D03*
X148590000Y-101600000D03*
X148590000Y-104140000D03*
X146050000Y-101600000D03*
X146050000Y-104140000D03*
X143510000Y-101600000D03*
X143510000Y-104140000D03*
D15*
X156210000Y-101600000D02*
X153670000Y-101600000D01*
X148590000Y-101600000D02*
X148590000Y-100584000D01*
X148590000Y-100584000D02*
X149860000Y-99314000D01*
X149860000Y-99314000D02*
X149860000Y-98465000D01*
X153670000Y-101600000D02*
X151130000Y-101600000D01*
X151130000Y-101600000D02*
X148590000Y-101600000D01*
X148590000Y-101600000D02*
X146050000Y-101600000D01*
X146050000Y-101600000D02*
X143510000Y-101600000D01*
X143510000Y-97790000D02*
X145415000Y-97790000D01*
X147955000Y-97155000D02*
X148610000Y-97810000D01*
X146050000Y-97155000D02*
X147955000Y-97155000D01*
X145415000Y-97790000D02*
X146050000Y-97155000D01*
X148610000Y-97810000D02*
X148610000Y-98465000D01*
X152360000Y-98465000D02*
X155535000Y-98465000D01*
X155535000Y-98465000D02*
X156210000Y-97790000D01*
X155535000Y-98465000D02*
X156210000Y-97790000D01*
X151110000Y-98465000D02*
X151110000Y-99548000D01*
X151110000Y-99548000D02*
X151511000Y-99949000D01*
X151511000Y-99949000D02*
X157353000Y-99949000D01*
X157353000Y-99949000D02*
X157861000Y-100457000D01*
X157861000Y-100457000D02*
X157861000Y-103632000D01*
X157861000Y-103632000D02*
X157353000Y-104140000D01*
X157353000Y-104140000D02*
X156210000Y-104140000D01*
X146050000Y-104140000D02*
X143510000Y-104140000D01*
X157099000Y-104140000D02*
X156210000Y-104140000D01*
X156210000Y-104140000D02*
X153670000Y-104140000D01*
X153670000Y-104140000D02*
X151130000Y-104140000D01*
X151130000Y-104140000D02*
X148590000Y-104140000D01*
X148590000Y-104140000D02*
X146050000Y-104140000D01*
X156210000Y-104140000D02*
X156845000Y-104140000D01*
D16*
G36*
X163733000Y-99677743D02*
X163127679Y-99071364D01*
X162306519Y-98730389D01*
X161417381Y-98729613D01*
X160595628Y-99069155D01*
X159966364Y-99697321D01*
X159625389Y-100518481D01*
X159624613Y-101407619D01*
X159964155Y-102229372D01*
X160592321Y-102858636D01*
X161413481Y-103199611D01*
X162302619Y-103200387D01*
X163124372Y-102860845D01*
X163733000Y-102253279D01*
X163733000Y-106838000D01*
X135987000Y-106838000D01*
X135987000Y-102252257D01*
X136592321Y-102858636D01*
X137413481Y-103199611D01*
X138302619Y-103200387D01*
X139124372Y-102860845D01*
X139753636Y-102232679D01*
X140094611Y-101411519D01*
X140095387Y-100522381D01*
X139755845Y-99700628D01*
X139127679Y-99071364D01*
X138306519Y-98730389D01*
X137417381Y-98729613D01*
X136595628Y-99069155D01*
X135987000Y-99676721D01*
X135987000Y-97917000D01*
X139319000Y-97917000D01*
X139319000Y-98171000D01*
X139493276Y-98793143D01*
X139892370Y-99301236D01*
X140455523Y-99617926D01*
X140587056Y-99649975D01*
X140843000Y-99530836D01*
X140843000Y-97917000D01*
X139319000Y-97917000D01*
X135987000Y-97917000D01*
X135987000Y-97409000D01*
X139319000Y-97409000D01*
X139319000Y-97663000D01*
X140843000Y-97663000D01*
X140843000Y-96049164D01*
X141097000Y-96049164D01*
X141097000Y-97663000D01*
X141117000Y-97663000D01*
X141117000Y-97917000D01*
X141097000Y-97917000D01*
X141097000Y-99530836D01*
X141352944Y-99649975D01*
X141484477Y-99617926D01*
X142047630Y-99301236D01*
X142225946Y-99074219D01*
X142342567Y-99248754D01*
X142878190Y-99606646D01*
X143510000Y-99732321D01*
X144141810Y-99606646D01*
X144677433Y-99248754D01*
X145035325Y-98713131D01*
X145042910Y-98675000D01*
X145414995Y-98675000D01*
X145415000Y-98675001D01*
X145697484Y-98618810D01*
X145753675Y-98607633D01*
X145777071Y-98592000D01*
X146225000Y-98592000D01*
X146225000Y-98892000D01*
X146359998Y-99316678D01*
X146647237Y-99657368D01*
X147058126Y-99859119D01*
X147233000Y-99732954D01*
X147233000Y-98592000D01*
X146225000Y-98592000D01*
X145777071Y-98592000D01*
X146040790Y-98415790D01*
X146225000Y-98231580D01*
X146225000Y-98338000D01*
X147233000Y-98338000D01*
X147233000Y-98318000D01*
X147475000Y-98318000D01*
X147475000Y-98793113D01*
X147487000Y-98853441D01*
X147487000Y-99732954D01*
X147661874Y-99859119D01*
X147973040Y-99706333D01*
X148118736Y-99803684D01*
X147985860Y-99936560D01*
X147574000Y-99936560D01*
X147338683Y-99980838D01*
X147322901Y-99990993D01*
X147317890Y-99987569D01*
X147066000Y-99936560D01*
X145034000Y-99936560D01*
X144798683Y-99980838D01*
X144782901Y-99990993D01*
X144777890Y-99987569D01*
X144526000Y-99936560D01*
X142494000Y-99936560D01*
X142258683Y-99980838D01*
X142042559Y-100119910D01*
X141897569Y-100332110D01*
X141846560Y-100584000D01*
X141846560Y-102616000D01*
X141890838Y-102851317D01*
X141900993Y-102867099D01*
X141897569Y-102872110D01*
X141846560Y-103124000D01*
X141846560Y-105156000D01*
X141890838Y-105391317D01*
X142029910Y-105607441D01*
X142242110Y-105752431D01*
X142494000Y-105803440D01*
X144526000Y-105803440D01*
X144761317Y-105759162D01*
X144777099Y-105749007D01*
X144782110Y-105752431D01*
X145034000Y-105803440D01*
X147066000Y-105803440D01*
X147301317Y-105759162D01*
X147317099Y-105749007D01*
X147322110Y-105752431D01*
X147574000Y-105803440D01*
X149606000Y-105803440D01*
X149841317Y-105759162D01*
X149857099Y-105749007D01*
X149862110Y-105752431D01*
X150114000Y-105803440D01*
X152146000Y-105803440D01*
X152381317Y-105759162D01*
X152397099Y-105749007D01*
X152402110Y-105752431D01*
X152654000Y-105803440D01*
X154686000Y-105803440D01*
X154921317Y-105759162D01*
X154937099Y-105749007D01*
X154942110Y-105752431D01*
X155194000Y-105803440D01*
X157226000Y-105803440D01*
X157461317Y-105759162D01*
X157677441Y-105620090D01*
X157822431Y-105407890D01*
X157873440Y-105156000D01*
X157873440Y-104836182D01*
X157978790Y-104765790D01*
X158486787Y-104257792D01*
X158486790Y-104257790D01*
X158678633Y-103970675D01*
X158746000Y-103632000D01*
X158746000Y-100457000D01*
X158678633Y-100118325D01*
X158486790Y-99831210D01*
X158486787Y-99831208D01*
X158285742Y-99630162D01*
X158367056Y-99649975D01*
X158623000Y-99530836D01*
X158623000Y-97917000D01*
X158877000Y-97917000D01*
X158877000Y-99530836D01*
X159132944Y-99649975D01*
X159264477Y-99617926D01*
X159827630Y-99301236D01*
X160226724Y-98793143D01*
X160401000Y-98171000D01*
X160401000Y-97917000D01*
X158877000Y-97917000D01*
X158623000Y-97917000D01*
X158603000Y-97917000D01*
X158603000Y-97663000D01*
X158623000Y-97663000D01*
X158623000Y-96049164D01*
X158877000Y-96049164D01*
X158877000Y-97663000D01*
X160401000Y-97663000D01*
X160401000Y-97409000D01*
X160226724Y-96786857D01*
X159827630Y-96278764D01*
X159264477Y-95962074D01*
X159132944Y-95930025D01*
X158877000Y-96049164D01*
X158623000Y-96049164D01*
X158367056Y-95930025D01*
X158235523Y-95962074D01*
X157672370Y-96278764D01*
X157494054Y-96505781D01*
X157377433Y-96331246D01*
X156841810Y-95973354D01*
X156210000Y-95847679D01*
X155578190Y-95973354D01*
X155042567Y-96331246D01*
X154684675Y-96866869D01*
X154559000Y-97498679D01*
X154559000Y-97580000D01*
X153326724Y-97580000D01*
X153162566Y-97334321D01*
X152794346Y-97088284D01*
X152360000Y-97001887D01*
X151925654Y-97088284D01*
X151735000Y-97215675D01*
X151544346Y-97088284D01*
X151110000Y-97001887D01*
X150675654Y-97088284D01*
X150485000Y-97215675D01*
X150294346Y-97088284D01*
X149860000Y-97001887D01*
X149425654Y-97088284D01*
X149250081Y-97205598D01*
X149235790Y-97184210D01*
X149235787Y-97184208D01*
X148580790Y-96529210D01*
X148293675Y-96337367D01*
X148237484Y-96326190D01*
X147955000Y-96269999D01*
X147954995Y-96270000D01*
X146050005Y-96270000D01*
X146050000Y-96269999D01*
X145711326Y-96337366D01*
X145711324Y-96337367D01*
X145711325Y-96337367D01*
X145424210Y-96529210D01*
X145424208Y-96529213D01*
X145048420Y-96905000D01*
X145042910Y-96905000D01*
X145035325Y-96866869D01*
X144677433Y-96331246D01*
X144141810Y-95973354D01*
X143510000Y-95847679D01*
X142878190Y-95973354D01*
X142342567Y-96331246D01*
X142225946Y-96505781D01*
X142047630Y-96278764D01*
X141484477Y-95962074D01*
X141352944Y-95930025D01*
X141097000Y-96049164D01*
X140843000Y-96049164D01*
X140587056Y-95930025D01*
X140455523Y-95962074D01*
X139892370Y-96278764D01*
X139493276Y-96786857D01*
X139319000Y-97409000D01*
X135987000Y-97409000D01*
X135987000Y-95092000D01*
X163733000Y-95092000D01*
X163733000Y-99677743D01*
X163733000Y-99677743D01*
G37*
X163733000Y-99677743D02*
X163127679Y-99071364D01*
X162306519Y-98730389D01*
X161417381Y-98729613D01*
X160595628Y-99069155D01*
X159966364Y-99697321D01*
X159625389Y-100518481D01*
X159624613Y-101407619D01*
X159964155Y-102229372D01*
X160592321Y-102858636D01*
X161413481Y-103199611D01*
X162302619Y-103200387D01*
X163124372Y-102860845D01*
X163733000Y-102253279D01*
X163733000Y-106838000D01*
X135987000Y-106838000D01*
X135987000Y-102252257D01*
X136592321Y-102858636D01*
X137413481Y-103199611D01*
X138302619Y-103200387D01*
X139124372Y-102860845D01*
X139753636Y-102232679D01*
X140094611Y-101411519D01*
X140095387Y-100522381D01*
X139755845Y-99700628D01*
X139127679Y-99071364D01*
X138306519Y-98730389D01*
X137417381Y-98729613D01*
X136595628Y-99069155D01*
X135987000Y-99676721D01*
X135987000Y-97917000D01*
X139319000Y-97917000D01*
X139319000Y-98171000D01*
X139493276Y-98793143D01*
X139892370Y-99301236D01*
X140455523Y-99617926D01*
X140587056Y-99649975D01*
X140843000Y-99530836D01*
X140843000Y-97917000D01*
X139319000Y-97917000D01*
X135987000Y-97917000D01*
X135987000Y-97409000D01*
X139319000Y-97409000D01*
X139319000Y-97663000D01*
X140843000Y-97663000D01*
X140843000Y-96049164D01*
X141097000Y-96049164D01*
X141097000Y-97663000D01*
X141117000Y-97663000D01*
X141117000Y-97917000D01*
X141097000Y-97917000D01*
X141097000Y-99530836D01*
X141352944Y-99649975D01*
X141484477Y-99617926D01*
X142047630Y-99301236D01*
X142225946Y-99074219D01*
X142342567Y-99248754D01*
X142878190Y-99606646D01*
X143510000Y-99732321D01*
X144141810Y-99606646D01*
X144677433Y-99248754D01*
X145035325Y-98713131D01*
X145042910Y-98675000D01*
X145414995Y-98675000D01*
X145415000Y-98675001D01*
X145697484Y-98618810D01*
X145753675Y-98607633D01*
X145777071Y-98592000D01*
X146225000Y-98592000D01*
X146225000Y-98892000D01*
X146359998Y-99316678D01*
X146647237Y-99657368D01*
X147058126Y-99859119D01*
X147233000Y-99732954D01*
X147233000Y-98592000D01*
X146225000Y-98592000D01*
X145777071Y-98592000D01*
X146040790Y-98415790D01*
X146225000Y-98231580D01*
X146225000Y-98338000D01*
X147233000Y-98338000D01*
X147233000Y-98318000D01*
X147475000Y-98318000D01*
X147475000Y-98793113D01*
X147487000Y-98853441D01*
X147487000Y-99732954D01*
X147661874Y-99859119D01*
X147973040Y-99706333D01*
X148118736Y-99803684D01*
X147985860Y-99936560D01*
X147574000Y-99936560D01*
X147338683Y-99980838D01*
X147322901Y-99990993D01*
X147317890Y-99987569D01*
X147066000Y-99936560D01*
X145034000Y-99936560D01*
X144798683Y-99980838D01*
X144782901Y-99990993D01*
X144777890Y-99987569D01*
X144526000Y-99936560D01*
X142494000Y-99936560D01*
X142258683Y-99980838D01*
X142042559Y-100119910D01*
X141897569Y-100332110D01*
X141846560Y-100584000D01*
X141846560Y-102616000D01*
X141890838Y-102851317D01*
X141900993Y-102867099D01*
X141897569Y-102872110D01*
X141846560Y-103124000D01*
X141846560Y-105156000D01*
X141890838Y-105391317D01*
X142029910Y-105607441D01*
X142242110Y-105752431D01*
X142494000Y-105803440D01*
X144526000Y-105803440D01*
X144761317Y-105759162D01*
X144777099Y-105749007D01*
X144782110Y-105752431D01*
X145034000Y-105803440D01*
X147066000Y-105803440D01*
X147301317Y-105759162D01*
X147317099Y-105749007D01*
X147322110Y-105752431D01*
X147574000Y-105803440D01*
X149606000Y-105803440D01*
X149841317Y-105759162D01*
X149857099Y-105749007D01*
X149862110Y-105752431D01*
X150114000Y-105803440D01*
X152146000Y-105803440D01*
X152381317Y-105759162D01*
X152397099Y-105749007D01*
X152402110Y-105752431D01*
X152654000Y-105803440D01*
X154686000Y-105803440D01*
X154921317Y-105759162D01*
X154937099Y-105749007D01*
X154942110Y-105752431D01*
X155194000Y-105803440D01*
X157226000Y-105803440D01*
X157461317Y-105759162D01*
X157677441Y-105620090D01*
X157822431Y-105407890D01*
X157873440Y-105156000D01*
X157873440Y-104836182D01*
X157978790Y-104765790D01*
X158486787Y-104257792D01*
X158486790Y-104257790D01*
X158678633Y-103970675D01*
X158746000Y-103632000D01*
X158746000Y-100457000D01*
X158678633Y-100118325D01*
X158486790Y-99831210D01*
X158486787Y-99831208D01*
X158285742Y-99630162D01*
X158367056Y-99649975D01*
X158623000Y-99530836D01*
X158623000Y-97917000D01*
X158877000Y-97917000D01*
X158877000Y-99530836D01*
X159132944Y-99649975D01*
X159264477Y-99617926D01*
X159827630Y-99301236D01*
X160226724Y-98793143D01*
X160401000Y-98171000D01*
X160401000Y-97917000D01*
X158877000Y-97917000D01*
X158623000Y-97917000D01*
X158603000Y-97917000D01*
X158603000Y-97663000D01*
X158623000Y-97663000D01*
X158623000Y-96049164D01*
X158877000Y-96049164D01*
X158877000Y-97663000D01*
X160401000Y-97663000D01*
X160401000Y-97409000D01*
X160226724Y-96786857D01*
X159827630Y-96278764D01*
X159264477Y-95962074D01*
X159132944Y-95930025D01*
X158877000Y-96049164D01*
X158623000Y-96049164D01*
X158367056Y-95930025D01*
X158235523Y-95962074D01*
X157672370Y-96278764D01*
X157494054Y-96505781D01*
X157377433Y-96331246D01*
X156841810Y-95973354D01*
X156210000Y-95847679D01*
X155578190Y-95973354D01*
X155042567Y-96331246D01*
X154684675Y-96866869D01*
X154559000Y-97498679D01*
X154559000Y-97580000D01*
X153326724Y-97580000D01*
X153162566Y-97334321D01*
X152794346Y-97088284D01*
X152360000Y-97001887D01*
X151925654Y-97088284D01*
X151735000Y-97215675D01*
X151544346Y-97088284D01*
X151110000Y-97001887D01*
X150675654Y-97088284D01*
X150485000Y-97215675D01*
X150294346Y-97088284D01*
X149860000Y-97001887D01*
X149425654Y-97088284D01*
X149250081Y-97205598D01*
X149235790Y-97184210D01*
X149235787Y-97184208D01*
X148580790Y-96529210D01*
X148293675Y-96337367D01*
X148237484Y-96326190D01*
X147955000Y-96269999D01*
X147954995Y-96270000D01*
X146050005Y-96270000D01*
X146050000Y-96269999D01*
X145711326Y-96337366D01*
X145711324Y-96337367D01*
X145711325Y-96337367D01*
X145424210Y-96529210D01*
X145424208Y-96529213D01*
X145048420Y-96905000D01*
X145042910Y-96905000D01*
X145035325Y-96866869D01*
X144677433Y-96331246D01*
X144141810Y-95973354D01*
X143510000Y-95847679D01*
X142878190Y-95973354D01*
X142342567Y-96331246D01*
X142225946Y-96505781D01*
X142047630Y-96278764D01*
X141484477Y-95962074D01*
X141352944Y-95930025D01*
X141097000Y-96049164D01*
X140843000Y-96049164D01*
X140587056Y-95930025D01*
X140455523Y-95962074D01*
X139892370Y-96278764D01*
X139493276Y-96786857D01*
X139319000Y-97409000D01*
X135987000Y-97409000D01*
X135987000Y-95092000D01*
X163733000Y-95092000D01*
X163733000Y-99677743D01*
M02*
